<svg width="34" height="35" viewBox="0 0 34 35" fill="none" xmlns="http://www.w3.org/2000/svg">
<mask id="mask0_1061_3082" style="mask-type:alpha" maskUnits="userSpaceOnUse" x="0" y="0" width="34" height="35">
<rect y="16" width="24" height="24" transform="rotate(-41.1859 0 16)" fill="#D9D9D9"/>
</mask>
<g mask="url(#mask0_1061_3082)">
<path d="M19.0262 21.3295L16.1896 23.8116C15.2446 24.6384 14.1477 25.0102 12.899 24.9271C11.6503 24.8439 10.6126 24.3299 9.78581 23.385C8.95907 22.4402 8.58724 21.3433 8.67033 20.0943C8.75342 18.8453 9.26745 17.8074 10.2124 16.9805L13.049 14.4985L14.0367 15.6273L11.2001 18.1094C10.5682 18.6623 10.2243 19.3572 10.1685 20.1939C10.1127 21.0306 10.3613 21.7649 10.9143 22.3969C11.4673 23.0289 12.1621 23.3727 12.9988 23.4285C13.8355 23.4843 14.5699 23.2357 15.2018 22.6827L18.0384 20.2007L19.0262 21.3295ZM14.6066 20.1626L13.6189 19.0338L19.2632 14.0951L20.2509 15.2239L14.6066 20.1626ZM20.8208 19.7592L19.8331 18.6304L22.6697 16.1483C23.3017 15.5954 23.6455 14.9005 23.7013 14.0638C23.7571 13.2271 23.5085 12.4928 22.9555 11.8608C22.4025 11.2288 21.7077 10.885 20.871 10.8292C20.0343 10.7734 19.3 11.022 18.668 11.575L15.8314 14.057L14.8437 12.9282L17.6803 10.4462C18.6252 9.61931 19.7221 9.24747 20.9708 9.33064C22.2195 9.41381 23.2573 9.92781 24.084 10.8727C24.9108 11.8175 25.2826 12.9144 25.1995 14.1634C25.1164 15.4124 24.6024 16.4503 23.6574 17.2772L20.8208 19.7592Z" fill="#182A3C"/>
</g>
</svg>
