<svg width="18" height="19" viewBox="0 0 18 19" fill="none" xmlns="http://www.w3.org/2000/svg">
<mask id="mask0_1783_1576" style="mask-type:alpha" maskUnits="userSpaceOnUse" x="0" y="0" width="18" height="19">
<rect y="0.5" width="18" height="18" fill="#D9D9D9"/>
</mask>
<g mask="url(#mask0_1783_1576)">
<path d="M13.5008 16.8125C12.9281 16.8125 12.4411 16.612 12.0397 16.2109C11.6382 15.8099 11.4375 15.3229 11.4375 14.75C11.4375 14.6564 11.445 14.5594 11.4599 14.4591C11.4748 14.3588 11.4971 14.2663 11.5269 14.1817L5.97979 10.9337C5.78171 11.1308 5.55623 11.2849 5.30334 11.3959C5.05046 11.507 4.78267 11.5625 4.49998 11.5625C3.92707 11.5625 3.44009 11.3621 3.03906 10.9612C2.63802 10.5603 2.4375 10.0735 2.4375 9.50086C2.4375 8.92818 2.63802 8.44113 3.03906 8.03969C3.44009 7.63825 3.92707 7.43753 4.49998 7.43753C4.78267 7.43753 5.05046 7.49306 5.30334 7.60411C5.55623 7.71517 5.78171 7.86926 5.97979 8.06637L11.5269 4.81829C11.4971 4.73367 11.4748 4.64121 11.4599 4.5409C11.445 4.4406 11.4375 4.34364 11.4375 4.25001C11.4375 3.6771 11.6379 3.19012 12.0388 2.78909C12.4397 2.38805 12.9265 2.18753 13.4991 2.18753C14.0718 2.18753 14.5589 2.38797 14.9603 2.78884C15.3617 3.18972 15.5625 3.67649 15.5625 4.24917C15.5625 4.82184 15.3619 5.3089 14.9609 5.71034C14.5599 6.11177 14.0729 6.31249 13.5 6.31249C13.2173 6.31249 12.9495 6.25697 12.6966 6.14592C12.4437 6.03486 12.2183 5.88077 12.0202 5.68366L6.47304 8.93174C6.50286 9.01635 6.52521 9.10864 6.54011 9.20862C6.55501 9.30858 6.56246 9.40521 6.56246 9.49851C6.56246 9.59183 6.55501 9.68896 6.54011 9.78993C6.52521 9.89089 6.50286 9.98368 6.47304 10.0683L12.0202 13.3164C12.2183 13.1193 12.4437 12.9652 12.6966 12.8541C12.9495 12.7431 13.2173 12.6875 13.5 12.6875C14.0729 12.6875 14.5599 12.888 14.9609 13.2888C15.3619 13.6897 15.5625 14.1765 15.5625 14.7492C15.5625 15.3218 15.362 15.8089 14.9612 16.2103C14.5603 16.6118 14.0735 16.8125 13.5008 16.8125ZM13.5 5.18751C13.7606 5.18751 13.982 5.09641 14.1642 4.91419C14.3464 4.73197 14.4375 4.51057 14.4375 4.24999C14.4375 3.98942 14.3464 3.76802 14.1642 3.58579C13.982 3.40359 13.7606 3.31249 13.5 3.31249C13.2394 3.31249 13.018 3.4036 12.8358 3.58581C12.6536 3.76804 12.5625 3.98944 12.5625 4.25001C12.5625 4.51059 12.6536 4.73199 12.8358 4.91421C13.018 5.09643 13.2394 5.18751 13.5 5.18751ZM4.49998 10.4375C4.76056 10.4375 4.98196 10.3464 5.16418 10.1642C5.34639 9.98197 5.4375 9.76057 5.4375 9.49999C5.4375 9.23942 5.34639 9.01802 5.16418 8.83579C4.98196 8.65359 4.76056 8.56249 4.49998 8.56249C4.23941 8.56249 4.01801 8.6536 3.83578 8.83581C3.65357 9.01804 3.56246 9.23944 3.56246 9.50001C3.56246 9.76059 3.65357 9.98199 3.83578 10.1642C4.01801 10.3464 4.23941 10.4375 4.49998 10.4375ZM13.5 15.6875C13.7606 15.6875 13.982 15.5964 14.1642 15.4142C14.3464 15.232 14.4375 15.0106 14.4375 14.75C14.4375 14.4894 14.3464 14.268 14.1642 14.0858C13.982 13.9036 13.7606 13.8125 13.5 13.8125C13.2394 13.8125 13.018 13.9036 12.8358 14.0858C12.6536 14.268 12.5625 14.4894 12.5625 14.75C12.5625 15.0106 12.6536 15.232 12.8358 15.4142C13.018 15.5964 13.2394 15.6875 13.5 15.6875Z" fill="#182A3C"/>
</g>
</svg>
