<svg width="24" height="24" viewBox="0 0 24 24" fill="none" xmlns="http://www.w3.org/2000/svg">
<mask id="mask0_1099_2155" style="mask-type:alpha" maskUnits="userSpaceOnUse" x="0" y="0" width="24" height="24">
<rect width="24" height="24" fill="#D9D9D9"/>
</mask>
<g mask="url(#mask0_1099_2155)">
<path d="M15.7736 12.9731L14.6506 11.85C14.8006 11.0218 14.5643 10.2773 13.9419 9.61639C13.3195 8.95549 12.5557 8.70004 11.6506 8.85004L10.5275 7.72699C10.7531 7.62571 10.9846 7.54975 11.2217 7.49912C11.4589 7.44847 11.7185 7.42314 12.0006 7.42314C13.1352 7.42314 14.0983 7.81898 14.89 8.61064C15.6816 9.40231 16.0775 10.3654 16.0775 11.5C16.0775 11.7821 16.0521 12.0449 16.0015 12.2885C15.9509 12.5321 15.8749 12.7603 15.7736 12.9731ZM18.9544 16.0846L17.8506 15.05C18.4839 14.5667 19.0464 14.0375 19.5381 13.4625C20.0297 12.8875 20.4506 12.2334 20.8006 11.5C19.9672 9.81671 18.7714 8.47921 17.2131 7.48754C15.6547 6.49588 13.9172 6.00004 12.0006 6.00004C11.5172 6.00004 11.0422 6.03338 10.5756 6.10004C10.1089 6.16671 9.65056 6.26671 9.20056 6.40004L8.03521 5.23469C8.66726 4.98341 9.31277 4.79815 9.97174 4.67892C10.6307 4.55969 11.307 4.50007 12.0006 4.50007C14.3441 4.50007 16.4576 5.14622 18.3409 6.43852C20.2242 7.73083 21.598 9.41801 22.4621 11.5C22.0915 12.3936 21.613 13.2276 21.0265 14.0019C20.44 14.7763 19.7493 15.4705 18.9544 16.0846ZM19.7621 21.8692L15.716 17.8538C15.2031 18.0436 14.6349 18.1987 14.0112 18.3192C13.3874 18.4398 12.7172 18.5 12.0006 18.5C9.65058 18.5 7.53713 17.8539 5.66021 16.5616C3.7833 15.2693 2.40958 13.5821 1.53906 11.5C1.9083 10.6167 2.38522 9.79267 2.96984 9.02792C3.55445 8.26318 4.19805 7.60005 4.90061 7.03852L2.13136 4.23852L3.18521 3.18469L20.8159 20.8154L19.7621 21.8692ZM5.95444 8.09232C5.42624 8.51283 4.91245 9.01829 4.41309 9.60869C3.91372 10.1991 3.50955 10.8295 3.20056 11.5C4.0339 13.1834 5.22973 14.5209 6.78806 15.5125C8.3464 16.5042 10.0839 17 12.0006 17C12.4557 17 12.9089 16.9616 13.3602 16.8846C13.8115 16.8077 14.1942 16.7282 14.5083 16.6462L13.2429 15.35C13.0724 15.4192 12.8749 15.4744 12.6506 15.5154C12.4262 15.5564 12.2095 15.5769 12.0006 15.5769C10.866 15.5769 9.90283 15.1811 9.11116 14.3894C8.3195 13.5978 7.92366 12.6346 7.92366 11.5C7.92366 11.2975 7.94418 11.0856 7.98521 10.8645C8.02625 10.6433 8.08137 10.4411 8.15059 10.2577L5.95444 8.09232Z" fill="#949494"/>
</g>
</svg>
